<svg width="24.000000" height="24.000000" viewBox="0 0 24 24" fill="none" xmlns="http://www.w3.org/2000/svg" xmlns:xlink="http://www.w3.org/1999/xlink">
	<desc>
			Created with Pixso.
	</desc>
	<defs/>
	<path id="Ellipse 35" d="M24 12C24 18.62 18.62 24 12 24C5.37 24 0 18.62 0 12C0 5.37 5.37 0 12 0C18.62 0 24 5.37 24 12Z" fill="#141024" fill-opacity="0.080000" fill-rule="nonzero"/>
	<path id="i" d="M11.54 7.86C10.95 7.86 10.65 7.58 10.65 7.02C10.65 6.48 10.95 6.2 11.54 6.2C12.14 6.2 12.43 6.48 12.43 7.02C12.43 7.58 12.14 7.86 11.54 7.86ZM11.54 18.08C11.1 18.08 10.87 17.83 10.87 17.34L10.87 10.47C10.87 9.99 11.1 9.75 11.54 9.75C12 9.75 12.23 9.99 12.23 10.47L12.23 17.34C12.23 17.83 12 18.08 11.54 18.08Z" fill="#141024" fill-opacity="1.000000" fill-rule="nonzero"/>
</svg>
